<svg width="48" height="48" viewBox="0 0 48 48" fill="none" xmlns="http://www.w3.org/2000/svg">
<g filter="url(#filter0_b_2670_2767)">
<rect width="48" height="48" rx="24" fill="url(#paint0_linear_2670_2767)" fill-opacity="0.4"/>
<path d="M14.1338 27.271L16.1338 30.731C16.2666 30.9605 16.4851 31.1279 16.7413 31.1963C16.9974 31.2648 17.2703 31.2287 17.4998 31.096L18.8958 30.29C19.4758 30.747 20.1168 31.122 20.7908 31.402V33C20.7908 33.2652 20.8962 33.5196 21.0837 33.7071C21.2713 33.8946 21.5256 34 21.7908 34H25.7908C26.0561 34 26.3104 33.8946 26.4979 33.7071C26.6855 33.5196 26.7908 33.2652 26.7908 33V31.402C27.4701 31.1192 28.1077 30.7451 28.6858 30.29L30.0818 31.096C30.5588 31.371 31.1728 31.206 31.4478 30.731L33.4478 27.271C33.5795 27.0412 33.6149 26.7687 33.5466 26.5129C33.4782 26.257 33.3115 26.0385 33.0828 25.905L31.7108 25.112C31.818 24.3745 31.8174 23.6253 31.7088 22.888L33.0808 22.095C33.5568 21.82 33.7218 21.205 33.4458 20.729L31.4458 17.269C31.3131 17.0395 31.0946 16.8721 30.8384 16.8037C30.5823 16.7352 30.3094 16.7713 30.0798 16.904L28.6838 17.71C28.1064 17.2544 27.4691 16.8802 26.7898 16.598V15C26.7898 14.7348 26.6845 14.4804 26.4969 14.2929C26.3094 14.1054 26.0551 14 25.7898 14H21.7898C21.5246 14 21.2703 14.1054 21.0827 14.2929C20.8952 14.4804 20.7898 14.7348 20.7898 15V16.598C20.1106 16.8808 19.473 17.2549 18.8948 17.71L17.4998 16.904C17.3862 16.8382 17.2607 16.7954 17.1305 16.7781C17.0003 16.7608 16.868 16.7694 16.7412 16.8033C16.6143 16.8372 16.4953 16.8958 16.3911 16.9757C16.2869 17.0556 16.1995 17.1553 16.1338 17.269L14.1338 20.729C14.0022 20.9588 13.9667 21.2313 14.0351 21.4871C14.1035 21.743 14.2701 21.9615 14.4988 22.095L15.8708 22.888C15.763 23.6254 15.763 24.3746 15.8708 25.112L14.4988 25.905C14.0228 26.18 13.8578 26.795 14.1338 27.271ZM23.7898 20C25.9958 20 27.7898 21.794 27.7898 24C27.7898 26.206 25.9958 28 23.7898 28C21.5838 28 19.7898 26.206 19.7898 24C19.7898 21.794 21.5838 20 23.7898 20Z" fill="black"/>
</g>
<defs>
<filter id="filter0_b_2670_2767" x="-25" y="-25" width="98" height="98" filterUnits="userSpaceOnUse" color-interpolation-filters="sRGB">
<feFlood flood-opacity="0" result="BackgroundImageFix"/>
<feGaussianBlur in="BackgroundImageFix" stdDeviation="12.5"/>
<feComposite in2="SourceAlpha" operator="in" result="effect1_backgroundBlur_2670_2767"/>
<feBlend mode="normal" in="SourceGraphic" in2="effect1_backgroundBlur_2670_2767" result="shape"/>
</filter>
<linearGradient id="paint0_linear_2670_2767" x1="3.17241" y1="-2.62295" x2="58.355" y2="22.5668" gradientUnits="userSpaceOnUse">
<stop stop-color="white"/>
<stop offset="1" stop-color="white" stop-opacity="0"/>
</linearGradient>
</defs>
</svg>
