<svg width="94" height="94" viewBox="0 0 94 94" fill="none" xmlns="http://www.w3.org/2000/svg">
<circle cx="47" cy="47" r="47" fill="#545454"/>
<path d="M36.5833 42.8327V36.5827C36.5833 33.82 37.6808 31.1705 39.6343 29.217C41.5878 27.2635 44.2373 26.166 47 26.166C49.7627 26.166 52.4122 27.2635 54.3657 29.217C56.3192 31.1705 57.4167 33.82 57.4167 36.5827V42.8327M49.0833 55.3327C49.0833 56.4833 48.1506 57.416 47 57.416C45.8494 57.416 44.9167 56.4833 44.9167 55.3327C44.9167 54.1821 45.8494 53.2494 47 53.2494C48.1506 53.2494 49.0833 54.1821 49.0833 55.3327ZM32.4167 42.8327H61.5833C63.8845 42.8327 65.75 44.6982 65.75 46.9994V63.666C65.75 65.9672 63.8845 67.8327 61.5833 67.8327H32.4167C30.1155 67.8327 28.25 65.9672 28.25 63.666V46.9994C28.25 44.6982 30.1155 42.8327 32.4167 42.8327Z" stroke="white" stroke-width="2" stroke-linecap="round" stroke-linejoin="round"/>
</svg>
