<svg width="94" height="94" viewBox="0 0 94 94" fill="none" xmlns="http://www.w3.org/2000/svg">
<circle cx="47" cy="47" r="47" fill="#986E92"/>
<path d="M67.8337 43.8757V34.5007C67.8337 33.3956 67.3947 32.3358 66.6133 31.5544C65.8319 30.773 64.7721 30.334 63.667 30.334H30.3337C29.2286 30.334 28.1688 30.773 27.3874 31.5544C26.606 32.3358 26.167 33.3956 26.167 34.5007V59.5006C26.167 61.7923 28.042 63.6673 30.3337 63.6673H56.3753M67.8337 36.584L49.1462 48.459C48.503 48.862 47.7593 49.0757 47.0003 49.0757C46.2413 49.0757 45.4977 48.862 44.8545 48.459L26.167 36.584M63.667 51.1673V59.5006M63.667 67.834V67.8548" stroke="white" stroke-width="2" stroke-linecap="round" stroke-linejoin="round"/>
</svg>
