<svg width="36" height="36" viewBox="0 0 36 36" fill="none" xmlns="http://www.w3.org/2000/svg">
<path d="M25.4683 26.7194L25.1555 27.03L25.1739 27.4705C25.2734 29.8603 25.2731 30.9671 25.2062 31.4992C25.2041 31.5161 25.202 31.5317 25.1999 31.5463L22.3648 32.692C22.3484 32.6799 22.3301 32.6662 22.3101 32.6507C21.878 32.3161 21.0804 31.5299 19.435 29.7736L19.1438 29.4628L18.7179 29.4574L17.2982 29.4394L16.8515 29.4338L16.5492 29.7627C14.9563 31.4961 14.1876 32.2637 13.7714 32.5855C13.7591 32.595 13.7475 32.6038 13.7367 32.6118L10.9309 31.3857C10.7648 30.0223 10.7284 28.6461 10.8222 27.2755L10.8524 26.8331L10.545 26.5137L9.53245 25.4618L9.22666 25.1442L8.78587 25.1557C6.43535 25.2171 5.34765 25.1991 4.82477 25.1249C4.80568 25.1222 4.78819 25.1195 4.7722 25.1169L3.59308 22.1981C3.60486 22.1814 3.61831 22.1628 3.63362 22.1423C3.95422 21.7134 4.71339 20.919 6.41877 19.2762L6.72499 18.9812V18.556V17.0935V16.6649L6.41466 16.3693C4.95485 14.979 4.20536 14.2027 3.81955 13.7675C3.68391 13.6145 3.60056 13.5118 3.5505 13.4461L4.72848 10.5823C4.7467 10.5795 4.76688 10.5766 4.78915 10.5736C5.3199 10.5041 6.41839 10.495 8.78495 10.5723L9.2172 10.5864L9.52353 10.2811L10.5282 9.27989L10.839 8.97011L10.8214 8.53162C10.7259 6.14329 10.7282 5.03636 10.7959 4.50364C10.7982 4.48506 10.8006 4.46795 10.8029 4.45224L13.647 3.30227C13.6627 3.31388 13.68 3.32697 13.6989 3.34171C14.1294 3.67662 14.9227 4.46264 16.567 6.21776L16.8572 6.52759L17.2817 6.53398L18.7014 6.55535L19.1498 6.5621L19.4531 6.23182C21.0511 4.49149 21.8207 3.72559 22.2358 3.40864C22.2444 3.40199 22.2528 3.39573 22.2607 3.38984L25.0664 4.61628C25.2353 5.98065 25.2729 7.35831 25.1787 8.73033L25.1482 9.1744L25.4578 9.49426L26.4703 10.5405L26.7763 10.8567L27.2162 10.8447C29.5658 10.7805 30.6542 10.8006 31.1763 10.8758C31.1962 10.8787 31.2145 10.8815 31.2311 10.8843L32.4092 13.7948C32.3973 13.8117 32.3838 13.8303 32.3683 13.851C32.0471 14.2801 31.2874 15.0747 29.5821 16.7175L29.2759 17.0125V17.4377V18.9047V19.333L29.5858 19.6285C31.0423 21.0172 31.7919 21.7939 32.1788 22.2302C32.3177 22.387 32.4022 22.4913 32.4523 22.5574L31.2788 25.4142C31.2602 25.4171 31.2396 25.4201 31.2168 25.4231C30.6852 25.4924 29.5861 25.501 27.2181 25.4236L26.7869 25.4095L26.4808 25.7136L25.4683 26.7194ZM11.8988 20.4467L11.8987 20.4467L11.903 20.4574C12.5495 22.0905 13.8167 23.401 15.4271 24.1019C17.0376 24.8029 18.8601 24.8373 20.4959 24.1977L20.496 24.1977L20.5066 24.1934C21.7076 23.7078 22.7384 22.8782 23.4697 21.8089C24.201 20.7396 24.6002 19.4781 24.6172 18.1828C24.6342 16.8874 24.2682 15.6159 23.5653 14.5277C22.8623 13.4396 21.8536 12.5833 20.6658 12.0663C19.478 11.5493 18.1639 11.3946 16.8885 11.6216C15.6131 11.8486 14.4332 12.4473 13.4967 13.3424C12.5603 14.2376 11.9091 15.3893 11.6248 16.6532C11.3405 17.9171 11.4358 19.2368 11.8988 20.4467Z" stroke="#4A4747" stroke-width="2"/>
</svg>
