<svg width="36" height="36" viewBox="0 0 36 36" fill="none" xmlns="http://www.w3.org/2000/svg">
<path d="M13.5 4.5H6C5.17157 4.5 4.5 5.17157 4.5 6V16.5C4.5 17.3284 5.17157 18 6 18H13.5C14.3284 18 15 17.3284 15 16.5V6C15 5.17157 14.3284 4.5 13.5 4.5Z" stroke="#4A4747" stroke-width="2" stroke-linecap="round" stroke-linejoin="round"/>
<path d="M30 4.5H22.5C21.6716 4.5 21 5.17157 21 6V10.5C21 11.3284 21.6716 12 22.5 12H30C30.8284 12 31.5 11.3284 31.5 10.5V6C31.5 5.17157 30.8284 4.5 30 4.5Z" stroke="#4A4747" stroke-width="2" stroke-linecap="round" stroke-linejoin="round"/>
<path d="M30 18H22.5C21.6716 18 21 18.6716 21 19.5V30C21 30.8284 21.6716 31.5 22.5 31.5H30C30.8284 31.5 31.5 30.8284 31.5 30V19.5C31.5 18.6716 30.8284 18 30 18Z" stroke="#4A4747" stroke-width="2" stroke-linecap="round" stroke-linejoin="round"/>
<path d="M13.5 24H6C5.17157 24 4.5 24.6716 4.5 25.5V30C4.5 30.8284 5.17157 31.5 6 31.5H13.5C14.3284 31.5 15 30.8284 15 30V25.5C15 24.6716 14.3284 24 13.5 24Z" stroke="#4A4747" stroke-width="2" stroke-linecap="round" stroke-linejoin="round"/>
</svg>
