<svg width="36" height="36" viewBox="0 0 36 36" fill="none" xmlns="http://www.w3.org/2000/svg">
<path d="M22.5 31.5V19.5C22.5 19.1021 22.342 18.7206 22.0607 18.4393C21.7794 18.158 21.3978 18 21 18H15C14.6022 18 14.2206 18.158 13.9393 18.4393C13.658 18.7206 13.5 19.1021 13.5 19.5V31.5M4.5 15C4.4999 14.5636 4.595 14.1324 4.77868 13.7365C4.96236 13.3407 5.2302 12.9896 5.5635 12.708L16.0635 3.70945C16.605 3.25182 17.291 3.00073 18 3.00073C18.709 3.00073 19.395 3.25182 19.9365 3.70945L30.4365 12.708C30.7698 12.9896 31.0376 13.3407 31.2213 13.7365C31.405 14.1324 31.5001 14.5636 31.5 15V28.5C31.5 29.2956 31.1839 30.0587 30.6213 30.6213C30.0587 31.1839 29.2956 31.5 28.5 31.5H7.5C6.70435 31.5 5.94129 31.1839 5.37868 30.6213C4.81607 30.0587 4.5 29.2956 4.5 28.5V15Z" stroke="#4A4747" stroke-width="2" stroke-linecap="round" stroke-linejoin="round"/>
</svg>
