<svg width="53" height="44" viewBox="0 0 53 44" fill="none" xmlns="http://www.w3.org/2000/svg">
<path d="M16.0617 0H17.1756L24.1823 0.0359319L24.2901 0.107796V6.57553L24.4339 6.50367L24.7213 6.00062L24.9728 5.6413L25.3322 5.10233L25.5837 4.77894L25.8711 4.41962L26.1227 4.13217L26.6257 3.59319L26.9132 3.30573L27.3084 2.98235L27.6677 2.69489L27.9911 2.44337L28.9613 1.79659L29.5362 1.47321L30.3986 1.04202L30.7938 0.898297L30.9375 0.826433L31.2969 0.718637L31.4046 0.646774L31.6202 0.57491L31.9436 0.503046L31.9796 0.467114L32.2311 0.431182L32.267 0.395251L32.6263 0.323387L32.6982 0.287455L33.0575 0.251523L33.309 0.179659L33.5965 0.143727L33.6684 0.107796L34.3511 0.0718637L34.7104 0H35.8961L36.3273 0.0718637L37.046 0.107796L37.3693 0.179659L37.6927 0.215591L37.7646 0.251523L38.088 0.287455L38.2317 0.359319L38.7707 0.467114L39.1659 0.610842L39.7049 0.790501L40.7469 1.22168L41.3218 1.50914L42.0764 1.94032L42.7951 2.44337L43.37 2.87455L43.6574 3.12607L44.6276 4.09623L44.915 4.31182L44.8791 4.45555L44.4479 4.8508L39.2737 10.025L39.13 10.2047L38.9863 10.2406L38.591 9.77347L38.3395 9.52195L37.8724 9.19856L37.2975 8.83924L36.7226 8.58772L36.1117 8.40806L35.1775 8.37213L34.4589 8.40806L34.0995 8.55179L33.8839 8.62365L33.309 8.9111L32.806 9.23449L32.3748 9.62974L32.1233 9.9172L31.7999 10.4202L31.5124 10.9952L31.4046 11.2826L31.3687 11.5701L31.3328 11.606L31.2609 12.145L31.225 12.2887V12.8995L31.3328 13.4745L31.6202 14.1931L31.9077 14.6961L32.267 15.1992L32.8419 15.7741L33.4168 16.1334L33.6684 16.2771L34.1714 16.4568L34.4948 16.5287L34.5667 16.5646L35.5009 16.6005L36.0399 16.5646L36.1836 16.4927L36.507 16.4568L36.6866 16.3849L37.01 16.2771L37.6927 15.9178L38.1239 15.5944L38.5192 15.271L41.3218 12.4684L41.5734 12.1809L42.6513 11.1029L42.9028 10.8155L47.0709 6.6474L47.2147 6.68333L50.2329 9.70161L50.5204 9.95313L50.9875 10.4202L51.1672 10.564L51.4187 10.8514L52.6404 12.0731L52.9278 12.3246L52.9997 12.5043L43.7652 21.7388L43.4418 21.9903L43.1184 22.2778L42.5076 22.7089L41.8968 23.1042L41.4296 23.3917L40.6391 23.8228L39.9564 24.1103L39.4175 24.2899L39.1659 24.3618L39.13 24.3977L38.4832 24.5415L38.4473 24.5774L38.088 24.6493L37.9802 24.6852L37.6568 24.7211L37.6209 24.7571L37.1897 24.793L37.01 24.8649L36.2555 24.9008L36.0758 24.9367H34.5307L34.3511 24.9008L33.6684 24.8649L33.3809 24.793L32.6623 24.6493L31.9796 24.4696L31.0813 24.1822L30.3986 23.9306L29.7877 23.6432L29.0691 23.2479L28.3864 22.8167L27.524 22.17L27.1288 21.8106L26.8413 21.5591L26.6257 21.3795L26.3742 21.092L26.1227 20.8405L25.8352 20.4812L25.5118 20.1218L25.2962 19.8344L24.865 19.2236L24.4339 18.5408L24.362 18.4331L24.1823 18.5049L13.6902 28.997L13.5824 29.1407H13.5106L13.4387 29.2845L10.4923 32.2309H10.4204L10.3486 32.3746L10.0971 32.6261L9.77366 33.0933L9.62994 33.4526L9.59401 33.9556L9.73773 34.4587L9.98926 34.8539L10.2767 35.1054L10.5642 35.2492L11.1391 35.357L11.4984 35.2851L11.714 35.2132L12.0374 35.0336L12.3967 34.7102L12.9716 34.1712L13.5465 33.5604L16.2773 30.8295L16.5648 30.578L17.499 29.6438L17.7505 29.3563L18.9004 28.2065L19.1519 27.9909L19.3315 27.8113L19.7627 27.3442L20.0502 27.0926L23.6074 23.5354L23.8949 23.2839L24.2183 22.9245H24.3261L24.2901 30.3265L24.2542 30.5062L24.2183 31.0451L24.1464 31.2607L24.1105 31.656L24.0386 32.0153L23.9668 32.2309L23.8949 32.5543L23.859 32.5902L23.7871 32.9136L23.5715 33.5244L23.1763 34.4227L22.5295 35.7163L22.0983 36.399L21.6312 37.0817L21.3437 37.441L20.9485 37.8722L20.697 38.1956L17.3912 41.5013L17.1038 41.7169L16.6007 42.0762L16.0977 42.3996L15.3072 42.8308L14.7323 43.0823L14.1933 43.262L13.834 43.3698L13.3309 43.4776L13.1153 43.5494L12.6841 43.5854L12.3248 43.6572H9.8096L9.12689 43.5494L8.58791 43.4057L7.97707 43.226L7.15064 42.9027L6.57573 42.6152L6.07268 42.3277L5.31811 41.8247L4.81507 41.4295L4.41982 41.1061L3.62932 40.3156L3.37779 39.9922L3.01847 39.4891L2.65916 38.9142L2.12018 37.9081L1.83272 37.1536L1.61713 36.399L1.50934 36.0397L1.40154 35.5366L1.36561 35.1054L1.32968 34.9976L1.25781 33.776L1.32968 32.6621L1.36561 32.5902L1.40154 32.0872L1.4734 31.9434L1.50934 31.5841L1.54527 31.5482L1.68899 30.9014L1.79679 30.578L1.90459 30.2906L2.12018 29.7516L2.51543 28.9611L2.73102 28.6377L2.91068 28.3143L3.37779 27.7035L3.66525 27.3442L3.9527 27.0567L4.20423 26.7692L4.56354 26.374L4.81507 26.0865L6.93505 23.9666L7.04284 23.8947L7.00691 23.715L6.79132 23.6072L6.50387 23.4276L5.85709 23.0323L5.35405 22.7089L4.99473 22.4574L4.70727 22.2418L4.24016 21.8466L3.80898 21.4513L3.44966 21.092L3.1622 20.7327L2.87475 20.4093L2.69509 20.2296V20.1218L6.97098 15.846L7.2225 15.5585L7.50996 15.271H7.58182L7.65368 15.1273L8.33639 14.4446L8.62385 14.1931L8.76757 14.1212L8.83944 14.229L8.9113 14.5165L9.19876 15.0195L9.62994 15.4866L9.88146 15.7382L10.2408 15.9897L10.8157 16.2771L11.3187 16.4568L11.6062 16.5287L11.6781 16.5646L12.6123 16.6005L13.1153 16.5646L13.2591 16.4927L13.5465 16.4568L13.8699 16.349L14.5167 16.0975L15.0556 15.7741L15.379 15.5226L15.8821 15.0195L15.918 14.5524L15.9539 2.91048L16.0258 0.0359319L16.0617 0Z" fill="#1A1A1A"/>
<path d="M0.538978 0L8.26433 0.0359319L8.30026 0.0718637V10.0609L8.04874 10.3484L1.14982 17.2473L1.00609 17.2114L0.934229 17.1395L0.898297 16.888L0.682706 16.3131L0.610842 16.0615L0.395251 15.3429L0.323387 15.0195L0.287455 14.9836L0.251523 14.5524L0.215591 14.4805L0.143727 13.9775L0.107796 13.9056L0.0718637 13.0433L0.0359319 12.8636L0 12.2887V0.862365L0.0359319 0.0359319L0.538978 0Z" fill="#1A1A1A"/>
</svg>
