<svg width="95" height="80" viewBox="0 0 95 80" fill="none" xmlns="http://www.w3.org/2000/svg">
<path d="M27.2737 0H29.3038L42.0737 0.0654871L42.2702 0.196461V11.9841L42.5321 11.8532L43.056 10.9363L43.5145 10.2815L44.1693 9.29917L44.6277 8.70979L45.1516 8.05491L45.61 7.53102L46.5269 6.54871L47.0508 6.02481L47.7711 5.43543L48.426 4.91153L49.0154 4.45312L50.7835 3.27436L51.8313 2.68497L53.403 1.89913L54.1234 1.63718L54.3853 1.5062L55.0402 1.30974L55.2366 1.17877L55.6296 1.04779L56.2189 0.91682L56.2844 0.851332L56.7428 0.785845L56.8083 0.720358L57.4632 0.589384L57.5942 0.523897L58.249 0.45841L58.7075 0.327436L59.2314 0.261948L59.3623 0.196461L60.6066 0.130974L61.2615 0H63.4225L64.2084 0.130974L65.5181 0.196461L66.1075 0.327436L66.6969 0.392923L66.8279 0.45841L67.4172 0.523897L67.6792 0.654871L68.6615 0.851332L69.3819 1.11328L70.3642 1.44072L72.2633 2.22656L73.3111 2.75046L74.6863 3.5363L75.996 4.45312L77.0438 5.23897L77.5677 5.69738L79.3359 7.46553L79.8598 7.85845L79.7943 8.1204L79.0085 8.84076L69.5783 18.2709L69.3164 18.5983L69.0544 18.6638L68.3341 17.8125L67.8756 17.3541L67.0243 16.7647L65.9765 16.1098L64.9287 15.6514L63.8154 15.324L62.1128 15.2585L60.803 15.324L60.1482 15.5859L59.7552 15.7169L58.7075 16.2408L57.7906 16.8302L57.0048 17.5505L56.5464 18.0744L55.957 18.9913L55.4331 20.0391L55.2366 20.563L55.1712 21.0868L55.1057 21.1523L54.9747 22.1346L54.9092 22.3966V23.5099L55.1057 24.5577L55.6296 25.8674L56.1535 26.7842L56.8083 27.701L57.8561 28.7488L58.9039 29.4037L59.3623 29.6657L60.2791 29.9931L60.8685 30.1241L60.9995 30.1896L62.7022 30.255L63.6845 30.1896L63.9464 30.0586L64.5358 29.9931L64.8632 29.8621L65.4526 29.6657L66.6969 29.0108L67.4827 28.4214L68.2031 27.832L73.3111 22.724L73.7695 22.2001L75.7341 20.2355L76.1925 19.7116L83.789 12.1151L84.051 12.1806L89.5519 17.6815L90.0758 18.1399L90.9271 18.9913L91.2545 19.2532L91.713 19.7771L93.9395 22.0037L94.4634 22.4621L94.5944 22.7895L77.7642 39.6197L77.1748 40.0781L76.5854 40.602L75.4722 41.3879L74.3589 42.1082L73.5075 42.6321L72.0668 43.418L70.8226 43.9418L69.8403 44.2693L69.3819 44.4003L69.3164 44.4657L68.1376 44.7277L68.0721 44.7932L67.4172 44.9242L67.2208 44.9896L66.6314 45.0551L66.5659 45.1206L65.7801 45.1861L65.4526 45.3171L64.0774 45.3826L63.75 45.4481H60.934L60.6066 45.3826L59.3623 45.3171L58.8384 45.1861L57.5287 44.9242L56.2844 44.5967L54.6473 44.0728L53.403 43.6144L52.2897 43.0905L50.98 42.3702L49.7357 41.5843L48.164 40.4055L47.4437 39.7507L46.9198 39.2923L46.5269 38.9648L46.0684 38.4409L45.61 37.9825L45.0861 37.3277L44.4968 36.6728L44.1038 36.1489L43.318 35.0356L42.5321 33.7913L42.4012 33.5949L42.0737 33.7259L22.9515 52.8481L22.755 53.11H22.6241L22.4931 53.372L17.1232 58.7419H16.9922L16.8612 59.0039L16.4028 59.4623L15.8134 60.3136L15.5515 60.9685L15.486 61.8853L15.7479 62.8021L16.2063 63.5225L16.7302 63.9809L17.2541 64.2429L18.3019 64.4393L18.9568 64.3083L19.3497 64.1774L19.9391 63.8499L20.594 63.2605L21.6418 62.2782L22.6896 61.165L27.6666 56.1879L28.1905 55.7295L29.8931 54.0269L30.3515 53.503L32.4471 51.4074L32.9055 51.0145L33.233 50.687L34.0188 49.8357L34.5427 49.3773L41.0259 42.8941L41.5498 42.4356L42.1392 41.7808H42.3357L42.2702 55.2711L42.2047 55.5986L42.1392 56.5809L42.0082 56.9738L41.9428 57.6941L41.8118 58.349L41.6808 58.7419L41.5498 59.3313L41.4844 59.3968L41.3534 59.9862L40.9605 61.0995L40.2401 62.7367L39.0613 65.0942L38.2755 66.3384L37.4242 67.5827L36.9003 68.2376L36.1799 69.0234L35.7215 69.6128L29.6967 75.6376L29.1728 76.0305L28.256 76.6854L27.3391 77.2748L25.8984 78.0606L24.8506 78.519L23.8683 78.8465L23.2135 79.0429L22.2966 79.2394L21.9037 79.3704L21.1179 79.4359L20.463 79.5668H15.8789L14.6346 79.3704L13.6523 79.1084L12.5391 78.781L11.0329 78.1916L9.98506 77.6677L9.06824 77.1438L7.69301 76.227L6.77619 75.5066L6.05583 74.9173L4.61512 73.4765L4.15671 72.8872L3.50184 71.9703L2.84697 70.9225L1.86466 69.0889L1.34076 67.7137L0.94784 66.3384L0.751378 65.6836L0.554917 64.7668L0.48943 63.9809L0.423943 63.7844L0.292969 61.5579L0.423943 59.5278L0.48943 59.3968L0.554917 58.48L0.685891 58.218L0.751378 57.5632L0.816866 57.4977L1.07881 56.3189L1.27528 55.7295L1.47174 55.2056L1.86466 54.2233L2.58502 52.7826L2.97794 52.1932L3.30538 51.6038L4.15671 50.4906L4.6806 49.8357L5.2045 49.3118L5.66291 48.7879L6.31778 48.0675L6.77619 47.5436L10.6399 43.6799L10.8364 43.5489L10.7709 43.2215L10.378 43.025L9.85408 42.6976L8.67532 41.9772L7.7585 41.3879L7.10363 40.9294L6.57973 40.5365L5.7284 39.8162L4.94255 39.0958L4.28768 38.4409L3.76378 37.7861L3.23989 37.1967L2.91245 36.8692V36.6728L10.7054 28.8798L11.1638 28.3559L11.6877 27.832H11.8187L11.9497 27.5701L13.1939 26.3258L13.7178 25.8674L13.9798 25.7364L14.1107 25.9329L14.2417 26.4568L14.7656 27.3736L15.5515 28.2249L16.0099 28.6834L16.6647 29.1418L17.7125 29.6657L18.6294 29.9931L19.1533 30.1241L19.2842 30.1896L20.9869 30.255L21.9037 30.1896L22.1657 30.0586L22.6896 29.9931L23.2789 29.7966L24.4577 29.3382L25.44 28.7488L26.0294 28.2904L26.9462 27.3736L27.0117 26.5223L27.0772 5.30446L27.2082 0.0654871L27.2737 0Z" fill="black"/>
</svg>
