<svg width="36" height="36" viewBox="0 0 36 36" fill="none" xmlns="http://www.w3.org/2000/svg">
<path d="M28.5 10.5V6C28.5 5.60218 28.342 5.22064 28.0607 4.93934C27.7794 4.65804 27.3978 4.5 27 4.5H7.5C6.70435 4.5 5.94129 4.81607 5.37868 5.37868C4.81607 5.94129 4.5 6.70435 4.5 7.5M4.5 7.5C4.5 8.29565 4.81607 9.05871 5.37868 9.62132C5.94129 10.1839 6.70435 10.5 7.5 10.5H30C30.3978 10.5 30.7794 10.658 31.0607 10.9393C31.342 11.2206 31.5 11.6022 31.5 12V18M4.5 7.5V28.5C4.5 29.2956 4.81607 30.0587 5.37868 30.6213C5.94129 31.1839 6.70435 31.5 7.5 31.5H30C30.3978 31.5 30.7794 31.342 31.0607 31.0607C31.342 30.7794 31.5 30.3978 31.5 30V24M31.5 18H27C26.2044 18 25.4413 18.3161 24.8787 18.8787C24.3161 19.4413 24 20.2044 24 21C24 21.7956 24.3161 22.5587 24.8787 23.1213C25.4413 23.6839 26.2044 24 27 24H31.5M31.5 18C31.8978 18 32.2794 18.158 32.5607 18.4393C32.842 18.7206 33 19.1022 33 19.5V22.5C33 22.8978 32.842 23.2794 32.5607 23.5607C32.2794 23.842 31.8978 24 31.5 24" stroke="#4A4747" stroke-width="2" stroke-linecap="round" stroke-linejoin="round"/>
</svg>
