<svg width="23" height="24" viewBox="0 0 23 24" fill="none" xmlns="http://www.w3.org/2000/svg">
<path d="M11.5 0.28125C9.25951 0.28125 7.06934 0.968543 5.20644 2.25622C3.34354 3.54389 1.89158 5.37411 1.03418 7.51543C0.176783 9.65675 -0.0475513 12.013 0.389547 14.2862C0.826645 16.5594 1.90554 18.6475 3.48981 20.2864C5.07408 21.9253 7.09256 23.0414 9.29 23.4936C11.4874 23.9457 13.7651 23.7137 15.8351 22.8267C17.905 21.9397 19.6742 20.4377 20.919 18.5106C22.1637 16.5834 22.8281 14.3177 22.8281 12C22.8248 8.89304 21.6303 5.91431 19.5066 3.71736C17.3828 1.52041 14.5034 0.284662 11.5 0.28125ZM11.5 22.7812C9.43875 22.7812 7.42379 22.1489 5.70992 20.9643C3.99605 19.7796 2.66025 18.0958 1.87145 16.1258C1.08264 14.1558 0.876253 11.988 1.27838 9.89668C1.68051 7.80532 2.6731 5.88429 4.13063 4.3765C5.58815 2.86872 7.44515 1.84191 9.4668 1.42591C11.4884 1.00991 13.5839 1.22342 15.4883 2.03942C17.3926 2.85543 19.0203 4.23729 20.1655 6.01026C21.3106 7.78323 21.9219 9.86767 21.9219 12C21.9189 14.8584 20.8199 17.5989 18.8661 19.6201C16.9122 21.6413 14.2631 22.7781 11.5 22.7812ZM15.4875 15.0949C14.8597 15.9604 13.9845 16.5996 12.986 16.922C11.9875 17.2445 10.9163 17.2337 9.92398 16.8914C8.9317 16.5491 8.06867 15.8925 7.45711 15.0146C6.84556 14.1367 6.51648 13.0821 6.51648 12C6.51648 10.9179 6.84556 9.86326 7.45711 8.98538C8.06867 8.10751 8.9317 7.45091 9.92398 7.10858C10.9163 6.76625 11.9875 6.75554 12.986 7.07796C13.9845 7.40038 14.8597 8.0396 15.4875 8.90508C15.5233 8.95432 15.5493 9.01038 15.5642 9.07004C15.579 9.1297 15.5823 9.1918 15.574 9.25279C15.5656 9.31378 15.5457 9.37247 15.5154 9.42551C15.4851 9.47855 15.445 9.5249 15.3974 9.56191C15.3498 9.59892 15.2957 9.62587 15.238 9.64122C15.1803 9.65657 15.1203 9.66002 15.0613 9.65137C15.0024 9.64272 14.9456 9.62214 14.8944 9.5908C14.8431 9.55947 14.7983 9.51799 14.7625 9.46875C14.2489 8.7604 13.533 8.23716 12.716 7.97315C11.899 7.70914 11.0224 7.71774 10.2104 7.99774C9.39838 8.27774 8.69213 8.81495 8.19166 9.53325C7.69119 10.2516 7.42188 11.1146 7.42188 12C7.42188 12.8854 7.69119 13.7484 8.19166 14.4667C8.69213 15.1851 9.39838 15.7223 10.2104 16.0023C11.0224 16.2823 11.899 16.2909 12.716 16.0269C13.533 15.7628 14.2489 15.2396 14.7625 14.5312C14.8348 14.4318 14.9422 14.3661 15.0613 14.3486C15.1804 14.3312 15.3013 14.3633 15.3974 14.4381C15.4936 14.5128 15.5571 14.624 15.574 14.7472C15.5909 14.8704 15.5598 14.9955 15.4875 15.0949Z" fill="#FAFAFA"/>
</svg>
